<svg id="Group_10787" data-name="Group 10787" xmlns="http://www.w3.org/2000/svg" xmlns:xlink="http://www.w3.org/1999/xlink" width="169.228" height="169.228" viewBox="0 0 169.228 169.228">
  <defs>
    <clipPath id="clip-path">
      <rect id="Rectangle_2261" data-name="Rectangle 2261" width="169.228" height="169.228" fill="none"/>
    </clipPath>
  </defs>
  <g id="Group_10786" data-name="Group 10786" clip-path="url(#clip-path)">
    <path id="Path_1180" data-name="Path 1180" d="M169.228,84.614A84.614,84.614,0,1,1,84.614,0a84.71,84.71,0,0,1,84.614,84.614" fill="#fff"/>
    <path id="Path_1181" data-name="Path 1181" d="M114.6,146.843a2.213,2.213,0,0,0-1.532.255l-.82.388,1.5,3.177.639-.3a2.689,2.689,0,0,0,1.347-1.086,2.09,2.09,0,0,0-1.137-2.432" fill="#374377"/>
    <path id="Path_1182" data-name="Path 1182" d="M29.925,38.026l1.982,3.526L33.7,39.6Z" fill="#374377"/>
    <path id="Path_1183" data-name="Path 1183" d="M152.065,101.434a1.921,1.921,0,0,0,1.558-.3,2.2,2.2,0,0,0,.861-1.427l.121-.6-3.634-.734-.133.661a2.535,2.535,0,0,0,.086,1.64,1.524,1.524,0,0,0,1.141.755" fill="#374377"/>
    <path id="Path_1184" data-name="Path 1184" d="M20.823,52.876a1.924,1.924,0,0,0-1.582-.112,2.2,2.2,0,0,0-1.2,1.161l-.269.547L21.1,56.109l.3-.6a2.539,2.539,0,0,0,.332-1.61,1.523,1.523,0,0,0-.911-1.021" fill="#374377"/>
    <path id="Path_1185" data-name="Path 1185" d="M150.947,74.46a6.292,6.292,0,0,0-3.036,1.045,2.015,2.015,0,0,0,.456,3.593,7.857,7.857,0,0,0,6.237-.787,2.024,2.024,0,0,0-.456-3.6,6.3,6.3,0,0,0-3.2-.254" fill="#374377"/>
    <path id="Path_1186" data-name="Path 1186" d="M140.535,29.284A78.376,78.376,0,0,0,89.892,5.618H78.053C56.447,7.6,39.866,16.565,27.411,29.065A76.789,76.789,0,0,0,12.284,50.978a79.974,79.974,0,0,0-7.673,29.8v8.546c1.6,22.422,10.686,39.072,22.8,51.278a78.517,78.517,0,0,0,50.643,23.666H89.892c21.925-2.112,38.72-11.042,50.643-23.448a79.811,79.811,0,0,0,22.8-51.5V80.781c-1.524-22.574-10.681-39.221-22.8-51.5m15.651,44.837a6.5,6.5,0,0,1,.535,4.25,5.266,5.266,0,0,1-2.483,3.451,5.924,5.924,0,0,1-2.279.75,5.809,5.809,0,0,1-2.379-.164,5.266,5.266,0,0,1-3.256-2.72,6.416,6.416,0,0,1-.534-4.242,5.245,5.245,0,0,1,2.491-3.452,5.956,5.956,0,0,1,2.275-.746,5.859,5.859,0,0,1,2.375.164,5.313,5.313,0,0,1,2.024,1.1,5.162,5.162,0,0,1,1.231,1.609M148.83,51.277l-1.246.731-1.876-3.2-2.7,1.581,1.779,3.034-1.246.731-1.775-3.036-2.824,1.656,1.978,3.373-1.246.731-3.5-5.97,9.254-5.428ZM138.6,36.565,135.7,42.118l5.985-1.85,1.882,2.267-8.253,6.858-1.914-2.3,5.426-4.507-7.278,2.277-.185-.223,3.374-6.487-5.185,4.307-.995-1.2,8.254-6.855ZM122.356,22.9a5.122,5.122,0,0,1,2.246,2.411,2.86,2.86,0,0,1-.276,2.651,2.658,2.658,0,0,1-1.489,1.228,3.5,3.5,0,0,1-2.121-.121l-.193,4.982,9.554-5.64,2.21,1.887-3.976,10.715-2.43-2.075,1.2-3.146-2.741-2.341-2.87,1.718-.957-.817v.007L117.647,32.6l.626-6.02.574.353a2.452,2.452,0,0,0,1.663.461,1.831,1.831,0,0,0,1.22-.95,1.921,1.921,0,0,0,.317-1.59,2.6,2.6,0,0,0-1.236-1.334l-.65-.4-4.919,8-2.49-1.53,5.615-9.142Zm-6.479-3.7-.569,1.328L111.759,19l-1.231,2.869,3.383,1.444-.57,1.327-3.379-1.45L108.1,27.531l-2.767-1.188,4.231-9.86Zm-17.61-6.049,4.524,1.2a5.13,5.13,0,0,1,2.843,1.664,2.862,2.862,0,0,1,.5,2.619,2.654,2.654,0,0,1-1.074,1.6,3.493,3.493,0,0,1-2.066.493l1.317,5.13-3.251-.863-1.13-5.946.652.173a2.457,2.457,0,0,0,1.725-.036,1.827,1.827,0,0,0,.9-1.261,1.918,1.918,0,0,0-.153-1.614,2.606,2.606,0,0,0-1.565-.926l-.737-.2-2.411,9.083-2.83-.749Zm-9.88-1.293,6.678.75L94.9,14.043l-3.686-.414-.348,3.1,3.495.393L94.2,18.557l-3.493-.39-.368,3.251,3.885.437-.161,1.435-6.877-.772Zm-6.676-.086a4.357,4.357,0,0,1,2.769.695,2.566,2.566,0,0,1,1.071,2.106,2.226,2.226,0,0,1-.515,1.6,2.891,2.891,0,0,1-1.648.851,4.033,4.033,0,0,1,1.962.945,2.285,2.285,0,0,1,.722,1.635,2.4,2.4,0,0,1-.886,2.084,4.6,4.6,0,0,1-2.742.794l-5.256.167-.34-10.724Zm-16,2.054L69.259,19l1.167-6.155,2.884-.6,2.193,10.5-2.932.612-1.442-6.905-1.4,7.5-.283.059-4.135-6.021,1.378,6.6-1.525.318L62.971,14.4Zm-5.926,1.743,3.621,10.1-2.834,1.016-3.621-10.1Zm-4.8,1.675.631,1.3-2.571,1.249L57.1,28.145l-2.708,1.316L50.34,21.108l-2.578,1.253-.631-1.3ZM36.553,28.427l6.2,2.075L39.332,26.21,40.594,25.2l6.687,8.39-1.37,1.091-8.9-2.933L41.9,37.883l-1.243.991-6.687-8.39Zm-6.831,6.336L40.29,39.11l-2.159,2.356-3.1-1.307-2.437,2.659,1.617,2.928L33.18,46.871l-5.421-9.965Zm-5.508,6.4,1.192.815-2.095,3.06L25.888,46.8l1.984-2.9,1.193.815-1.981,2.9,2.7,1.847,2.206-3.228,1.193.815-3.9,5.715-8.858-6.054Zm-7.032,11.5a5.034,5.034,0,0,1,2.229-2.478,3.065,3.065,0,0,1,2.785.1A2.675,2.675,0,0,1,23.7,52.043a3.627,3.627,0,0,1-.377,2.557L22.3,56.7l3.914,1.918-1.29,2.622L15.3,56.5ZM10,76.477a5.124,5.124,0,0,1,1.241-3.052,2.857,2.857,0,0,1,2.521-.866,2.66,2.66,0,0,1,1.741.834,3.5,3.5,0,0,1,.783,1.975l4.883-2.041-.39,3.342-5.723,1.967.078-.67a2.454,2.454,0,0,0-.282-1.7,1.83,1.83,0,0,0-1.376-.706,1.918,1.918,0,0,0-1.576.382,2.606,2.606,0,0,0-.689,1.676l-.089.758,9.333,1.09-.339,2.9L9.457,81.127ZM9.555,89.883l6.35-.265a4.046,4.046,0,0,0,2.2-.541,2.091,2.091,0,0,0-.121-3.009,4.1,4.1,0,0,0-2.243-.349l-6.35.263-.063-1.524,6.831-.284a4.215,4.215,0,0,1,3.158.918,4.317,4.317,0,0,1,1.169,3.114,5.4,5.4,0,0,1-.233,1.834,3.757,3.757,0,0,1-.772,1.43,3.022,3.022,0,0,1-1.163.824,5.806,5.806,0,0,1-1.81.3l-6.831.283Zm1.79,12.759-1.251-6.6,1.417-.271.692,3.647,3.067-.581-.659-3.458,1.419-.269.654,3.455,3.217-.61-.723-3.837,1.419-.269,1.288,6.8ZM20.583,71a5.279,5.279,0,0,1-2.185.761,5.95,5.95,0,0,1-2.383-.236,5.847,5.847,0,0,1-2.1-1.107A5.3,5.3,0,0,1,12.5,68.6a5.161,5.161,0,0,1-.478-1.968,6.506,6.506,0,0,1,1.225-4.1,5.266,5.266,0,0,1,3.661-2.156A5.937,5.937,0,0,1,19.3,60.6a5.807,5.807,0,0,1,2.11,1.109,5.263,5.263,0,0,1,1.883,3.8,6.411,6.411,0,0,1-1.223,4.1A5.36,5.36,0,0,1,20.583,71m7.607,54.182a3.757,3.757,0,0,1-2.123-1.34,5.369,5.369,0,0,1-.567-2.082,3.052,3.052,0,0,0-.3-1.162,3.769,3.769,0,0,0-2.31-1.171l1.864-1.21a3.574,3.574,0,0,1,2.125,1.387,4.74,4.74,0,0,1,.543,1.868,3.815,3.815,0,0,0,.355,1.387,1.734,1.734,0,0,0,.607.544,8.283,8.283,0,0,0,1.662.577ZM26.311,81.876c.965-21.158,12.483-36.229,26.531-45.358a54.4,54.4,0,0,1,27.623-9.2c13.917-.739,26.064,3.234,34.42,8.766.173.114.149.286.439.438a38.187,38.187,0,0,1,5.7,4.382c12.7,10.871,23.937,29.465,19.731,53.908a54.122,54.122,0,0,1-14.25,28.926c-11.235,11.952-28.122,22-52.178,17.97a55.027,55.027,0,0,1-25.216-10.744c-12.817-9.925-23.828-26.473-22.8-49.088m19.4,53.316,2.629,1.7-1.318,6.058,5.046-3.645,1.187.768-9.8,6.753ZM56.92,148.418,53.746,146.9l-1.409,2.955,3.529,1.683-.622,1.3L49,149.865l4.614-9.681,6.066,2.892-.621,1.3-3.348-1.6-1.343,2.818,3.176,1.524ZM68.86,149.5a2.657,2.657,0,0,1-1.133,1.563,3.5,3.5,0,0,1-2.084.416l1.131,5.171-3.217-.984-.907-5.984.645.2a2.452,2.452,0,0,0,1.725.028,1.83,1.83,0,0,0,.942-1.227,1.917,1.917,0,0,0-.093-1.619,2.607,2.607,0,0,0-1.529-.984l-.729-.224-2.748,8.986-2.795-.854,3.138-10.26,4.476,1.369a5.121,5.121,0,0,1,2.779,1.769,2.859,2.859,0,0,1,.4,2.635m9.036,8.832-1.734-.236-4.028-8.46-1.055,7.769L69.5,157.2l1.444-10.632,3.27.444L77,152.925l.739-5.439,1.6.217Zm13.645-3.11a5.262,5.262,0,0,1-3,3,6.4,6.4,0,0,1-4.273.146,5.246,5.246,0,0,1-3.211-2.794,5.959,5.959,0,0,1-.536-2.334,5.852,5.852,0,0,1,.379-2.35,5.306,5.306,0,0,1,1.278-1.916,5.145,5.145,0,0,1,1.713-1.08,6.5,6.5,0,0,1,4.281-.146,5.264,5.264,0,0,1,3.211,2.786,5.94,5.94,0,0,1,.54,2.338,5.8,5.8,0,0,1-.379,2.354m9.932,1.128-6.632-6.619,1.611,7.673-1.556.327-2.2-10.5,3.229-.678,4.609,4.641L99.41,145.83l1.579-.332,2.2,10.5Zm17.161-7.308a4.6,4.6,0,0,1-2.2,1.822l-4.753,2.249-4.59-9.7,4.4-2.082a4.356,4.356,0,0,1,2.817-.468,2.566,2.566,0,0,1,1.822,1.5,2.228,2.228,0,0,1,.166,1.675,2.891,2.891,0,0,1-1.171,1.438,4.024,4.024,0,0,1,2.176.084,2.284,2.284,0,0,1,1.306,1.214,2.4,2.4,0,0,1,.019,2.264m9.744-6.059a5.689,5.689,0,0,1-2.006,2.286,6.416,6.416,0,0,1-1.855.9,5.5,5.5,0,0,1-4.225-.5,5.613,5.613,0,0,1-1.776-1.684,5.5,5.5,0,0,1-.992-4.3,5.753,5.753,0,0,1,2.545-3.708,5.353,5.353,0,0,1,2.451-.98,5.272,5.272,0,0,1,2.6.421l-.552,1.6a4.008,4.008,0,0,0-1.874-.606,2.643,2.643,0,0,0-1.624.489,2.455,2.455,0,0,0-1.132,2.145,5.585,5.585,0,0,0,1.174,3.037,4.908,4.908,0,0,0,2.45,2,2.746,2.746,0,0,0,2.545-.357,2.589,2.589,0,0,0,1.016-1.41,4.839,4.839,0,0,0,.083-2.151l1.531-.045a4.867,4.867,0,0,1-.362,2.856m15.24-22.5a5.366,5.366,0,0,1-1.655,1.386,3.05,3.05,0,0,0-.928.762,3.772,3.772,0,0,0-.1,2.588l-1.879-1.188a3.574,3.574,0,0,1,.372-2.51,4.721,4.721,0,0,1,1.47-1.274,3.792,3.792,0,0,0,1.111-.9,1.746,1.746,0,0,0,.241-.779,8.239,8.239,0,0,0-.17-1.751l1.865,1.179a3.762,3.762,0,0,1-.33,2.489m-.113-53.172a6.422,6.422,0,0,1-.311-2.04,5.5,5.5,0,0,1,1.731-3.886,5.6,5.6,0,0,1,2.136-1.195,5.5,5.5,0,0,1,4.4.333,5.752,5.752,0,0,1,2.784,3.533,5.358,5.358,0,0,1,.206,2.632,5.262,5.262,0,0,1-1.175,2.358l-1.365-1a4.008,4.008,0,0,0,1.136-1.61,2.646,2.646,0,0,0,.015-1.7,2.456,2.456,0,0,0-1.711-1.719,5.577,5.577,0,0,0-3.248.218,4.91,4.91,0,0,0-2.641,1.744,2.745,2.745,0,0,0-.417,2.537A2.589,2.589,0,0,0,146.08,68.9a4.838,4.838,0,0,0,2.031.716l-.412,1.475A4.858,4.858,0,0,1,145.08,69.9a5.7,5.7,0,0,1-1.586-2.6m12.147,33.42a5.031,5.031,0,0,1-1.523,2.961,3.065,3.065,0,0,1-2.719.614,2.677,2.677,0,0,1-1.908-1.315,3.627,3.627,0,0,1-.288-2.569l.462-2.29-4.271-.862.578-2.865,10.516,2.123ZM157.1,89.381a5.124,5.124,0,0,1-1.017,3.134,2.858,2.858,0,0,1-2.452,1.046,2.658,2.658,0,0,1-1.8-.706,3.494,3.494,0,0,1-.924-1.913L146.18,93.33l.148-3.361,5.566-2.375-.03.674a2.452,2.452,0,0,0,.4,1.677,1.829,1.829,0,0,0,1.423.605,1.918,1.918,0,0,0,1.544-.5,2.6,2.6,0,0,0,.57-1.727l.034-.762-9.387-.413.128-2.92,10.718.471Z" fill="#374377"/>
    <path id="Path_1187" data-name="Path 1187" d="M18.36,63.7a6.287,6.287,0,0,0-3.2-.268,2.024,2.024,0,0,0-1.035,3.479,6.294,6.294,0,0,0,2.824,1.523,6.276,6.276,0,0,0,3.2.266,2.014,2.014,0,0,0,1.032-3.471A6.284,6.284,0,0,0,18.354,63.7" fill="#374377"/>
    <path id="Path_1188" data-name="Path 1188" d="M129.032,30.609l-3.454,2.105,2.015,1.72Z" fill="#374377"/>
    <path id="Path_1189" data-name="Path 1189" d="M87.921,149.853a2.024,2.024,0,0,0-3.627.127,7.859,7.859,0,0,0,.225,6.284,2.013,2.013,0,0,0,3.619-.127,7.858,7.858,0,0,0-.217-6.284" fill="#374377"/>
    <path id="Path_1190" data-name="Path 1190" d="M113.518,145.021a1.942,1.942,0,0,0-1.052-2.241,2.024,2.024,0,0,0-1.4.232l-.762.361,1.384,2.923.595-.282a2.465,2.465,0,0,0,1.236-.993" fill="#374377"/>
    <path id="Path_1191" data-name="Path 1191" d="M80.864,17.684l-.907.029.111,3.513.706-.022a2.685,2.685,0,0,0,1.668-.458,2.092,2.092,0,0,0-.073-2.684,2.212,2.212,0,0,0-1.506-.378" fill="#374377"/>
    <path id="Path_1192" data-name="Path 1192" d="M80.574,16.376a2.463,2.463,0,0,0,1.529-.418,1.548,1.548,0,0,0,.409-1.274,1.539,1.539,0,0,0-.48-1.2,2.02,2.02,0,0,0-1.376-.346l-.842.027.1,3.232Z" fill="#374377"/>
    <path id="Path_1193" data-name="Path 1193" d="M85.288,44.186c-2.568-.981-4.3.659-3.727,2.63.922,3.146,6.539.316,3.727-2.63" fill="#374377"/>
    <path id="Path_1194" data-name="Path 1194" d="M72.134,66.756c.643-1.47,1.529-2.9,2.192-4.382,1.382-3.087,2.722-6.265,3.946-9.423h-.658c-2.379,6.242-5.163,12.077-7.673,18.188,1.45-.991,1.552-2.919,2.192-4.383" fill="#374377"/>
    <path id="Path_1195" data-name="Path 1195" d="M86.6,58.209c-.314,1.342.494,2.9,1.1,4.383,1.431,3.514,3.1,7.242,4.6,10.3.112.675.256,2.044.876,1.534a11.274,11.274,0,0,0-1.315-3.944C90.2,66.5,88.434,62.338,86.823,58.43c-.012-.134-.033-.26-.219-.22" fill="#374377"/>
    <path id="Path_1196" data-name="Path 1196" d="M59.2,64.784A13.021,13.021,0,0,0,61.173,66.1c.367-1.021-1.1-1.919-1.973-2.411-4.793,4.632-7.992,10.858-16,12.272,8.309-.753,11.042-7.077,16-11.176" fill="#374377"/>
    <path id="Path_1197" data-name="Path 1197" d="M46.046,92.4h-.658c-.525,1.21-1.131,5.827.438,6.354.843-1.229.456-4.769.22-6.354" fill="#374377"/>
    <path id="Path_1198" data-name="Path 1198" d="M123.655,98.97c.973-1.292.182-4.347.439-6.355a1.032,1.032,0,0,1-.658-.219c0,.435-.6.279-.438.877.35,1.767-.754,4.99.658,5.7" fill="#374377"/>
    <path id="Path_1199" data-name="Path 1199" d="M69.722,135.346a60.152,60.152,0,0,0,24.554,1.1c13.679-2.351,24.206-10.555,31.131-19.5,7.505-9.7,12.543-22.293,10.524-39.445a50.241,50.241,0,0,0-6.578-18.846c-9.25-15.172-25.132-27.823-50.642-25.639a49.4,49.4,0,0,0-20.827,6.355A57.363,57.363,0,0,0,42.1,53.614a44.262,44.262,0,0,0-2.631,3.945,45.016,45.016,0,0,0-2.631,4.164A56.652,56.652,0,0,0,32.015,92.84a48.963,48.963,0,0,0,7.234,19.5,52.225,52.225,0,0,0,12.715,14.025,49.047,49.047,0,0,0,17.758,8.984m46.039-74.506c1.39.609,2.009,1.9,3.069,3.287.795,1.038,2.586,2.793,2.411,3.944a1.989,1.989,0,0,1-1.754,1.534c-1.936.04-4.578-5.547-5.919-6.574.148-1.171,1.266-2.527,2.192-2.191m-14.25,8.766c.262-1.282,2.545-2.3,4.165-3.506,1.933-1.445,3.46-3.78,5.919-3.507,1.58.176,2.913,2.643,4.166,4.164,1.9,2.308,4.485,3.631,3.727,8.108,3.625-.987,10.708-1.53,12.935,1.753.521,5.407-3.153,8.675-7.673,11.833a26.024,26.024,0,0,1-6.578,3.506c-2.328.794-6.788,1.726-8.331.657-1.233-.855-1.5-4.363-1.1-6.793.43-2.592,2.258-4.363,3.289-5.917h-3.507c-1.677-1.189-2.434-2.843-3.946-4.82-1-1.316-3.524-3.253-3.068-5.479m11.18,35.5c-.837.265-2.3,1.049-3.289.439-.956-.332-.915-1.529-1.315-2.411-1.759-3.878-3.69-8.184-5.7-12.71-.674-1.517-2.356-3.8-2.193-5.04.188-1.422,2.191-1.946,3.07-2.629,1.553,1.277,2.058,3.409,2.85,5.259,1.577,3.682,3.208,7.5,4.823,11.4a18.2,18.2,0,0,1,1.754,5.7m-8.766-29.594c.956,1.244,2.312,2.23,2.192,3.725-.1,1.309-3.336,3.442-4.6,4.383-1.147.85-3.164,2.159-5.263,3.725-1.509,1.126-3.626,3.41-5.261,3.287-1.053-.08-2.6-1.861-3.508-2.63-.743-.631-2.814-1.775-2.85-3.067-.042-1.472,2.369-2.493,3.727-3.506,2.959-2.209,5.176-4.132,8.112-6.355,1.254-.95,3.279-2.707,4.384-2.63,1.223.085,2.237,1.986,3.069,3.067M92.743,55.361c1.425,3.49,3.022,6.931,4.6,10.738.606,1.456,2.246,4.364,1.973,5.7-.2.965-1.754,1.829-3.069,2.848-1.1.852-2.476,2.259-3.728,1.972-1.022-.234-1.794-2.743-2.411-4.163-2.071-4.771-3.888-9.369-5.918-13.806a11.538,11.538,0,0,0,1.315-4.6,31.457,31.457,0,0,1,4.6-3.945h.219c1.42,1.17,1.648,3.388,2.412,5.259M85.508,39.581c1.989.391,3.223,2.224,4.384,3.726,1.122,5.189-1.368,9.564-6.577,9.2-8.613-.6-7.623-14.861,2.193-12.929M69.722,66.1c2.042-4.874,5.119-12.069,7.015-15.778,1.785-.253,2.447,1.731,3.946,2.41,1.347.612,2.646.34,4.385.876-.022,2.346-1.347,4.341-2.193,6.356-1.7,4.046-3.286,7.992-5.042,12.052-.8,1.853-1.351,4.014-2.85,5.479a13.746,13.746,0,0,1-3.946-2.63c-.955-.817-3.078-2.362-3.288-3.287-.3-1.3,1.219-3.678,1.973-5.478M48.9,64.347a26.331,26.331,0,0,1,3.069-3.725c1.57-.477,3.479,1.83,3.508,2.63.041,1.153-2.385,3.594-3.727,5.04-.688.741-1.071,1.488-1.754,1.534-1.539.1-1.953-1.311-3.069-1.972-.336-1.631,1.207-2.593,1.973-3.506M37.276,74.865c1.35-1.072,2.855-.529,4.165-.657,8.511-.837,12.752-7.881,16.881-13.586,1.727.491,2.918,1.839,4.166,2.849a22.284,22.284,0,0,1,3.727,3.287c-.457,1.6-1.909,2.668-3.069,3.725-3.439,3.135-8.18,7.491-8.988,13.367-.261,1.892.1,3.732-.439,5.917-6.519.509-10.973-2.782-13.812-7.013-1.412-2.1-3.273-4.937-2.631-7.889M64.46,90.643c-2.356,4.727-5,11.257-7.673,14.682a7.924,7.924,0,0,1-2.85-1.1c-.2-1.951,1.022-3.77,1.754-5.478,2.255-5.265,4.607-10.866,7.015-16.215,1.264-.284,4.014,2.015,4.166,2.848.25,1.376-1.556,3.543-2.412,5.26m5.481,4.6c1.508-1.184,3.246-3.582,5.261-3.287.753.11,2.576,1.866,3.508,2.63,1.058.867,2.87,2.014,2.85,3.286-.023,1.481-4.5,4.136-5.7,5.041-1.355,1.025-4.416,3.992-6.358,4.383-1.894.381-4.093-.309-5.919-.658a21.189,21.189,0,0,1-5.262-1.315c.016-1.624,2.086-2.569,3.508-3.726,2.541-2.065,5.356-4.191,8.112-6.354M40.122,112.776c2.931-7.745-4.307-18.313-.439-26.3,1.743.375,2.923,1.814,4.385,2.629,1.517.847,3.257,1.265,4.6,2.411.378,2.8-.039,6.669-.219,9.641a5.906,5.906,0,0,1-2.85.658c14.174,7.733,40.634,8.936,60.289,5.259-3.393-.8-6.047,1.122-8.988.657-1.462-.23-3.654-2.4-5.043-3.506-1.769-1.409-3.32-2.89-4.6-3.945-3.566-2.929-6.823-4.962-9.428-7.669-4.212-2.852-9.387-7.447-14.25-11.4-1.343-1.09-4.427-2.686-4.6-3.944-.172-1.224,3.667-5.541,5.042-6.793.069.015.152-.019.219,0,1.8.508,3.756,2.591,5.7,4.163,4.688,3.792,8.741,7.141,13.372,10.957,7.738,6.377,16.281,12.963,24.116,19.5.205,1.228-.732,1.314-1.316,1.753,5.845-.659,11.8-3.107,17.1-5.04-.913-.476-2.752-.025-3.508-.658,1.04-2.246-.055-6.628.657-9.2.51-.8,1.571-.9,2.412-1.315,2.025-1,4.4-3.068,6.577-3.506,1.417,1.008,1.127,3.831.878,6.136-.652,6.045-2.342,12.726-2.193,19.283-13.358,5.516-29.8,11.389-49.327,10.081-14.579-.977-27.65-5.583-38.585-9.861" fill="#374377"/>
    <path id="Path_1200" data-name="Path 1200" d="M114.008,68.509c.982,1.173,2.446,2.233,2.85,3.725.34,1.256-.238,2.656.438,4.164.813.369,1.33,1.166,2.412,1.315,1.782.246,4.047-.874,6.138-.657,2.128.221,2.875,1.106,4.6,1.753.352-1.375-.572-1.473-1.535-1.534-3.315-2.529-7.96.731-10.742-.438a9.649,9.649,0,0,1-.876-5.04c-1.545-1.6-2.991-3.9-4.385-5.478-.477-.539-.979-1.564-1.754-1.315,1.157.879,1.8,2.251,2.85,3.506" fill="#374377"/>
    <path id="Path_1201" data-name="Path 1201" d="M120.511,34.353l.012-.3-.215.127Z" fill="#f6f5f7"/>
  </g>
</svg>
