<svg xmlns="http://www.w3.org/2000/svg" xmlns:xlink="http://www.w3.org/1999/xlink" width="168" height="168" viewBox="0 0 168 168">
  <defs>
    <clipPath id="clip-path">
      <rect id="Rectangle_2261" data-name="Rectangle 2261" width="168" height="168" transform="translate(336)" fill="none" stroke="#707070" stroke-width="1"/>
    </clipPath>
    <clipPath id="clip-path-2">
      <rect id="Rectangle_2252" data-name="Rectangle 2252" width="158.724" height="158.655" fill="none"/>
    </clipPath>
  </defs>
  <g id="Mask_Group_55" data-name="Mask Group 55" transform="translate(-336)" clip-path="url(#clip-path)">
    <g id="Group_10786" data-name="Group 10786" transform="translate(16 -158)">
      <g id="Ellipse_48" data-name="Ellipse 48" transform="translate(322 162)" fill="#fff" stroke="#fff" stroke-width="1">
        <circle cx="82" cy="82" r="82" stroke="none"/>
        <circle cx="82" cy="82" r="81.5" fill="none"/>
      </g>
      <g id="Group_234" data-name="Group 234" transform="translate(324 165)" clip-path="url(#clip-path-2)">
        <path id="Path_1113" data-name="Path 1113" d="M371.48,484.131a2.214,2.214,0,0,0-1.532.255l-.82.388,1.5,3.177.639-.3a2.689,2.689,0,0,0,1.347-1.086,2.09,2.09,0,0,0-1.137-2.432" transform="translate(-261.489 -342.905)" fill="#374377"/>
        <path id="Path_1114" data-name="Path 1114" d="M86.8,111.128l1.982,3.526,1.79-1.954Z" transform="translate(-61.486 -78.719)" fill="#374377"/>
        <path id="Path_1115" data-name="Path 1115" d="M502.47,321.132a1.923,1.923,0,0,0,1.558-.3,2.2,2.2,0,0,0,.861-1.427l.121-.6-3.634-.734-.133.661a2.536,2.536,0,0,0,.086,1.64,1.524,1.524,0,0,0,1.141.755" transform="translate(-355.016 -225.315)" fill="#374377"/>
        <path id="Path_1116" data-name="Path 1116" d="M48.193,161.482a1.922,1.922,0,0,0-1.582-.112,2.2,2.2,0,0,0-1.2,1.161l-.269.547,3.326,1.637.3-.605A2.534,2.534,0,0,0,49.1,162.5a1.523,1.523,0,0,0-.911-1.021" transform="translate(-31.981 -114.223)" fill="#374377"/>
        <path id="Path_1117" data-name="Path 1117" d="M492.236,235.855A6.283,6.283,0,0,0,489.2,236.9a2.015,2.015,0,0,0,.456,3.593,7.855,7.855,0,0,0,6.237-.787,2.024,2.024,0,0,0-.456-3.6,6.291,6.291,0,0,0-3.2-.254" transform="translate(-345.9 -167.012)" fill="#374377"/>
        <path id="Path_1118" data-name="Path 1118" d="M135.924,23.666A78.378,78.378,0,0,0,85.281,0H73.442C51.836,1.983,35.255,10.947,22.8,23.447A76.78,76.78,0,0,0,7.673,45.36,79.961,79.961,0,0,0,0,75.163v8.546c1.6,22.422,10.686,39.072,22.8,51.278a78.521,78.521,0,0,0,50.643,23.666H85.281c21.925-2.112,38.72-11.042,50.643-23.448a79.812,79.812,0,0,0,22.8-51.5V75.163c-1.524-22.574-10.681-39.221-22.8-51.5M151.575,68.5a6.5,6.5,0,0,1,.535,4.25,5.266,5.266,0,0,1-2.483,3.451,5.932,5.932,0,0,1-2.279.75,5.812,5.812,0,0,1-2.379-.164,5.264,5.264,0,0,1-3.256-2.72,6.414,6.414,0,0,1-.534-4.242,5.248,5.248,0,0,1,2.491-3.452,5.951,5.951,0,0,1,2.275-.746,5.861,5.861,0,0,1,2.375.164,5.306,5.306,0,0,1,2.024,1.1,5.157,5.157,0,0,1,1.231,1.609m-7.356-22.841-1.246.731-1.876-3.2L138.4,44.771l1.779,3.034-1.246.731L137.158,45.5l-2.824,1.656,1.978,3.373-1.246.731-3.5-5.97,9.254-5.428ZM133.993,30.947,131.086,36.5l5.985-1.85,1.882,2.267L130.7,43.775l-1.914-2.3,5.426-4.507-7.278,2.277-.185-.223,3.374-6.487-5.185,4.307-.995-1.2,8.254-6.855ZM117.745,17.282a5.124,5.124,0,0,1,2.246,2.411,2.859,2.859,0,0,1-.276,2.651,2.658,2.658,0,0,1-1.489,1.228,3.5,3.5,0,0,1-2.121-.121l-.193,4.982,9.554-5.64,2.21,1.887L123.7,35.395l-2.43-2.075,1.2-3.146-2.741-2.341-2.87,1.718-.957-.817v.007l-2.866-1.761.626-6.02.574.353a2.453,2.453,0,0,0,1.663.461,1.829,1.829,0,0,0,1.22-.95,1.919,1.919,0,0,0,.317-1.59A2.606,2.606,0,0,0,116.2,17.9l-.65-.4L110.631,25.5l-2.49-1.53,5.615-9.142Zm-6.479-3.7-.569,1.328-3.549-1.523-1.231,2.869L109.3,17.7l-.57,1.327-3.379-1.45-1.861,4.336-2.767-1.188,4.231-9.86ZM93.656,7.533l4.524,1.2a5.126,5.126,0,0,1,2.843,1.664,2.86,2.86,0,0,1,.5,2.619,2.658,2.658,0,0,1-1.074,1.6,3.494,3.494,0,0,1-2.066.493L99.7,20.239l-3.251-.863-1.13-5.946.652.173a2.454,2.454,0,0,0,1.725-.036,1.829,1.829,0,0,0,.9-1.261,1.92,1.92,0,0,0-.153-1.614,2.606,2.606,0,0,0-1.565-.926l-.737-.2-2.411,9.083L90.9,17.9ZM83.776,6.24l6.678.75-.161,1.435-3.686-.414-.348,3.1,3.495.393-.161,1.435L86.1,12.549,85.732,15.8l3.885.437-.161,1.435L82.579,16.9ZM77.1,6.154a4.358,4.358,0,0,1,2.769.695,2.564,2.564,0,0,1,1.071,2.106,2.224,2.224,0,0,1-.515,1.6,2.892,2.892,0,0,1-1.648.851,4.025,4.025,0,0,1,1.962.945,2.286,2.286,0,0,1,.722,1.635,2.4,2.4,0,0,1-.886,2.084,4.594,4.594,0,0,1-2.742.794l-5.256.167-.34-10.724Zm-16,2.054,3.548,5.17,1.167-6.155,2.884-.6,2.193,10.5-2.932.612-1.442-6.905-1.4,7.5-.283.059L60.7,12.368l1.378,6.6-1.525.318-2.193-10.5ZM55.174,9.951l3.621,10.1-2.834,1.016-3.621-10.1Zm-4.8,1.675.631,1.3-2.571,1.249,4.057,8.352-2.708,1.316L45.729,15.49l-2.578,1.253-.631-1.3ZM31.942,22.809l6.2,2.075-3.421-4.292,1.262-1.006,6.687,8.39L41.3,29.067l-8.9-2.933,4.887,6.131-1.243.991-6.687-8.39Zm-6.831,6.336,10.568,4.347L33.52,35.848l-3.1-1.307L27.983,37.2,29.6,40.128l-1.031,1.125-5.421-9.965Zm-5.508,6.4,1.192.815L18.7,39.42l2.577,1.761,1.984-2.9,1.193.815L22.473,42l2.7,1.847,2.206-3.228,1.193.815-3.9,5.715-8.858-6.054Zm-7.032,11.5A5.031,5.031,0,0,1,14.8,44.567a3.065,3.065,0,0,1,2.785.1,2.677,2.677,0,0,1,1.509,1.758,3.626,3.626,0,0,1-.377,2.557l-1.031,2.1L21.6,53l-1.29,2.622-9.626-4.737ZM5.389,70.859A5.125,5.125,0,0,1,6.63,67.807a2.86,2.86,0,0,1,2.521-.866,2.659,2.659,0,0,1,1.741.834,3.5,3.5,0,0,1,.783,1.975l4.883-2.041-.39,3.342-5.723,1.967.078-.67a2.453,2.453,0,0,0-.282-1.7,1.83,1.83,0,0,0-1.376-.706,1.92,1.92,0,0,0-1.576.382A2.607,2.607,0,0,0,6.6,72l-.089.758,9.333,1.09-.339,2.9L4.846,75.509ZM4.944,84.265,11.294,84a4.048,4.048,0,0,0,2.2-.541,1.713,1.713,0,0,0,.579-1.535,1.7,1.7,0,0,0-.7-1.474,4.106,4.106,0,0,0-2.243-.349l-6.35.263-.063-1.524,6.831-.284a4.213,4.213,0,0,1,3.158.918,4.316,4.316,0,0,1,1.169,3.114,5.392,5.392,0,0,1-.233,1.834,3.756,3.756,0,0,1-.772,1.43,3.024,3.024,0,0,1-1.163.824,5.8,5.8,0,0,1-1.81.3l-6.831.283Zm1.79,12.759-1.251-6.6L6.9,90.153,7.592,93.8l3.067-.581L10,89.761l1.419-.269.654,3.455,3.217-.61L14.567,88.5l1.419-.269,1.288,6.8Zm9.238-31.642a5.294,5.294,0,0,1-2.185.761,5.952,5.952,0,0,1-2.383-.236A5.856,5.856,0,0,1,9.3,64.8a5.3,5.3,0,0,1-1.408-1.822,5.151,5.151,0,0,1-.478-1.968,6.5,6.5,0,0,1,1.225-4.105A5.267,5.267,0,0,1,12.3,54.749a5.935,5.935,0,0,1,2.388.233,5.806,5.806,0,0,1,2.11,1.109,5.265,5.265,0,0,1,1.883,3.8,6.413,6.413,0,0,1-1.223,4.1,5.348,5.348,0,0,1-1.486,1.393m7.607,54.182a3.762,3.762,0,0,1-2.123-1.34,5.374,5.374,0,0,1-.567-2.082,3.058,3.058,0,0,0-.3-1.162,3.77,3.77,0,0,0-2.31-1.171l1.864-1.21a3.576,3.576,0,0,1,2.125,1.387,4.73,4.73,0,0,1,.543,1.868,3.814,3.814,0,0,0,.355,1.387,1.742,1.742,0,0,0,.607.544,8.3,8.3,0,0,0,1.662.577ZM21.7,76.258C22.665,55.1,34.183,40.029,48.231,30.9a54.4,54.4,0,0,1,27.623-9.2c13.917-.739,26.064,3.234,34.42,8.766.173.114.149.286.439.438a38.212,38.212,0,0,1,5.7,4.382c12.7,10.871,23.937,29.465,19.731,53.908a54.121,54.121,0,0,1-14.25,28.926c-11.235,11.952-28.122,21.995-52.178,17.97A55.029,55.029,0,0,1,44.5,125.346c-12.817-9.925-23.828-26.473-22.8-49.088m19.4,53.316,2.629,1.7-1.318,6.058,5.046-3.645,1.187.768-9.8,6.753ZM52.309,142.8l-3.174-1.513-1.409,2.955,3.529,1.683-.622,1.3-6.247-2.978L49,134.566l6.066,2.892-.621,1.3-3.348-1.6-1.343,2.818L52.93,141.5Zm11.94,1.085a2.658,2.658,0,0,1-1.133,1.563,3.5,3.5,0,0,1-2.084.416l1.131,5.171-3.217-.984-.907-5.984.645.2a2.452,2.452,0,0,0,1.725.028,1.83,1.83,0,0,0,.942-1.227,1.92,1.92,0,0,0-.093-1.619,2.606,2.606,0,0,0-1.529-.984L59,140.241l-2.748,8.986-2.795-.854,3.138-10.26,4.476,1.369a5.123,5.123,0,0,1,2.779,1.769,2.859,2.859,0,0,1,.4,2.635m9.036,8.832-1.734-.236-4.028-8.46-1.055,7.769-1.575-.214,1.444-10.632,3.27.444,2.785,5.918.739-5.439,1.6.217Zm13.645-3.11a5.263,5.263,0,0,1-3,3,6.4,6.4,0,0,1-4.273.146,5.244,5.244,0,0,1-3.211-2.794,5.947,5.947,0,0,1-.536-2.334,5.854,5.854,0,0,1,.379-2.35,5.306,5.306,0,0,1,1.278-1.916,5.155,5.155,0,0,1,1.713-1.08,6.5,6.5,0,0,1,4.281-.146,5.268,5.268,0,0,1,3.211,2.786,5.938,5.938,0,0,1,.54,2.338,5.8,5.8,0,0,1-.379,2.354m9.932,1.128-6.632-6.619,1.611,7.673-1.556.327-2.2-10.5,3.229-.678,4.609,4.641-1.128-5.372,1.579-.332,2.2,10.5Zm17.161-7.308a4.6,4.6,0,0,1-2.2,1.822l-4.753,2.249-4.59-9.7,4.4-2.082a4.359,4.359,0,0,1,2.817-.468,2.565,2.565,0,0,1,1.822,1.5,2.227,2.227,0,0,1,.166,1.675,2.891,2.891,0,0,1-1.171,1.438,4.024,4.024,0,0,1,2.176.084A2.285,2.285,0,0,1,114,141.164a2.4,2.4,0,0,1,.019,2.264m9.744-6.059a5.694,5.694,0,0,1-2.006,2.286,6.416,6.416,0,0,1-1.855.9,5.5,5.5,0,0,1-4.225-.5,5.611,5.611,0,0,1-1.776-1.684,5.5,5.5,0,0,1-.992-4.305,5.751,5.751,0,0,1,2.545-3.708,5.352,5.352,0,0,1,2.451-.98,5.263,5.263,0,0,1,2.6.421l-.552,1.6a4.012,4.012,0,0,0-1.874-.606,2.647,2.647,0,0,0-1.624.489,2.455,2.455,0,0,0-1.132,2.145,5.583,5.583,0,0,0,1.174,3.037,4.907,4.907,0,0,0,2.45,2,2.744,2.744,0,0,0,2.545-.357,2.584,2.584,0,0,0,1.016-1.41,4.833,4.833,0,0,0,.083-2.151l1.531-.045a4.861,4.861,0,0,1-.362,2.856M139,114.86a5.37,5.37,0,0,1-1.655,1.386,3.067,3.067,0,0,0-.928.762,3.771,3.771,0,0,0-.1,2.588l-1.879-1.188a3.577,3.577,0,0,1,.372-2.51,4.727,4.727,0,0,1,1.47-1.274,3.8,3.8,0,0,0,1.111-.9,1.74,1.74,0,0,0,.241-.779,8.3,8.3,0,0,0-.17-1.751l1.865,1.179a3.763,3.763,0,0,1-.33,2.489m-.113-53.172a6.42,6.42,0,0,1-.311-2.04,5.5,5.5,0,0,1,1.731-3.886,5.606,5.606,0,0,1,2.136-1.195,5.5,5.5,0,0,1,4.4.333,5.754,5.754,0,0,1,2.784,3.533,5.352,5.352,0,0,1,.206,2.632,5.264,5.264,0,0,1-1.175,2.358l-1.365-1a4.013,4.013,0,0,0,1.136-1.61,2.647,2.647,0,0,0,.015-1.7,2.454,2.454,0,0,0-1.711-1.719,5.584,5.584,0,0,0-3.248.218,4.907,4.907,0,0,0-2.641,1.744,2.746,2.746,0,0,0-.417,2.537,2.585,2.585,0,0,0,1.045,1.389A4.832,4.832,0,0,0,143.5,64l-.412,1.475a4.861,4.861,0,0,1-2.619-1.195,5.694,5.694,0,0,1-1.586-2.6M151.03,95.1a5.028,5.028,0,0,1-1.523,2.961,3.065,3.065,0,0,1-2.719.614,2.677,2.677,0,0,1-1.908-1.315,3.626,3.626,0,0,1-.288-2.569l.462-2.29-4.271-.862.578-2.865,10.516,2.123Zm1.455-11.337a5.123,5.123,0,0,1-1.017,3.134,2.859,2.859,0,0,1-2.452,1.046,2.66,2.66,0,0,1-1.8-.706,3.493,3.493,0,0,1-.924-1.913l-4.723,2.388.148-3.361,5.566-2.375-.03.674a2.455,2.455,0,0,0,.4,1.677,1.829,1.829,0,0,0,1.423.605,1.92,1.92,0,0,0,1.544-.5,2.6,2.6,0,0,0,.57-1.727l.034-.762-9.387-.413.128-2.92,10.718.471Z" transform="translate(0 0.001)" fill="#374377"/>
        <path id="Path_1119" data-name="Path 1119" d="M35.282,198.241a6.293,6.293,0,0,0-3.2-.268,2.024,2.024,0,0,0-1.035,3.479,6.291,6.291,0,0,0,2.824,1.523,6.279,6.279,0,0,0,3.2.266,2.014,2.014,0,0,0,1.032-3.471,6.284,6.284,0,0,0-2.827-1.528" transform="translate(-21.533 -140.162)" fill="#374377"/>
        <path id="Path_1120" data-name="Path 1120" d="M418.285,85.7l-3.454,2.105,2.015,1.72Z" transform="translate(-293.864 -60.708)" fill="#374377"/>
        <path id="Path_1121" data-name="Path 1121" d="M275.549,491.99a2.024,2.024,0,0,0-3.627.127,7.859,7.859,0,0,0,.225,6.284,2.014,2.014,0,0,0,3.619-.127,7.859,7.859,0,0,0-.217-6.284" transform="translate(-192.239 -347.754)" fill="#374377"/>
        <path id="Path_1122" data-name="Path 1122" d="M365.667,472.451a1.942,1.942,0,0,0-1.052-2.241,2.025,2.025,0,0,0-1.4.232l-.762.361,1.384,2.923.595-.282a2.466,2.466,0,0,0,1.236-.993" transform="translate(-256.76 -333.047)" fill="#374377"/>
        <path id="Path_1123" data-name="Path 1123" d="M259.292,41.371l-.907.029.111,3.513.706-.022a2.685,2.685,0,0,0,1.668-.458,2.091,2.091,0,0,0-.073-2.684,2.213,2.213,0,0,0-1.506-.378" transform="translate(-183.039 -29.304)" fill="#374377"/>
        <path id="Path_1124" data-name="Path 1124" d="M258.651,29.023a2.465,2.465,0,0,0,1.529-.418,1.547,1.547,0,0,0,.409-1.274,1.54,1.54,0,0,0-.48-1.2,2.022,2.022,0,0,0-1.376-.346l-.842.027.1,3.232Z" transform="translate(-182.688 -18.264)" fill="#374377"/>
        <path id="Path_1125" data-name="Path 1125" d="M267.343,131.538c-2.568-.981-4.3.659-3.727,2.63.922,3.146,6.539.316,3.727-2.63" transform="translate(-186.666 -92.969)" fill="#374377"/>
        <path id="Path_1126" data-name="Path 1126" d="M226.233,176.11c.643-1.47,1.529-2.9,2.192-4.382,1.382-3.087,2.722-6.265,3.946-9.423h-.658c-2.379,6.242-5.163,12.077-7.673,18.188,1.45-.991,1.552-2.919,2.192-4.383" transform="translate(-158.71 -114.971)" fill="#374377"/>
        <path id="Path_1127" data-name="Path 1127" d="M281.008,180.318c-.314,1.342.494,2.9,1.1,4.383,1.431,3.514,3.1,7.242,4.6,10.3.112.675.256,2.044.876,1.534a11.272,11.272,0,0,0-1.315-3.944c-1.667-3.979-3.431-8.144-5.042-12.052-.012-.134-.033-.26-.219-.22" transform="translate(-199.015 -127.726)" fill="#374377"/>
        <path id="Path_1128" data-name="Path 1128" d="M148.324,200.219a13.036,13.036,0,0,0,1.973,1.315c.367-1.021-1.1-1.919-1.973-2.411-4.793,4.632-7.992,10.858-16,12.272,8.309-.753,11.042-7.077,16-11.176" transform="translate(-93.735 -141.052)" fill="#374377"/>
        <path id="Path_1129" data-name="Path 1129" d="M139.116,297.559h-.658c-.525,1.21-1.131,5.827.438,6.354.843-1.229.456-4.769.22-6.354" transform="translate(-97.681 -210.78)" fill="#374377"/>
        <path id="Path_1130" data-name="Path 1130" d="M406.435,304.133c.973-1.292.182-4.347.439-6.355a1.034,1.034,0,0,1-.658-.219c0,.435-.6.279-.438.877.35,1.767-.754,4.99.658,5.7" transform="translate(-287.391 -210.78)" fill="#374377"/>
        <path id="Path_1131" data-name="Path 1131" d="M130.6,195.665a60.16,60.16,0,0,0,24.554,1.1c13.679-2.351,24.206-10.555,31.131-19.5,7.505-9.7,12.543-22.293,10.524-39.445a50.236,50.236,0,0,0-6.578-18.846c-9.25-15.172-25.132-27.823-50.642-25.639a49.392,49.392,0,0,0-20.827,6.355,57.361,57.361,0,0,0-15.784,14.243,44.094,44.094,0,0,0-2.631,3.945,44.909,44.909,0,0,0-2.631,4.164,56.646,56.646,0,0,0-4.823,31.117,48.973,48.973,0,0,0,7.234,19.5,52.227,52.227,0,0,0,12.715,14.025,49.05,49.05,0,0,0,17.758,8.984m46.039-74.506c1.39.609,2.009,1.9,3.069,3.287.795,1.038,2.586,2.793,2.411,3.944a1.989,1.989,0,0,1-1.754,1.534c-1.936.04-4.578-5.547-5.919-6.574.148-1.171,1.266-2.527,2.192-2.191m-14.25,8.766c.262-1.282,2.545-2.3,4.165-3.506,1.933-1.445,3.46-3.78,5.919-3.507,1.58.176,2.913,2.643,4.166,4.164,1.9,2.308,4.485,3.631,3.727,8.108,3.625-.987,10.708-1.53,12.935,1.753.521,5.407-3.153,8.675-7.673,11.833a26.007,26.007,0,0,1-6.578,3.506c-2.328.794-6.788,1.726-8.331.657-1.233-.855-1.5-4.363-1.1-6.793.43-2.592,2.258-4.363,3.289-5.917H169.4c-1.677-1.189-2.434-2.843-3.946-4.82-1.005-1.316-3.524-3.253-3.068-5.479m11.18,35.5c-.837.265-2.3,1.049-3.289.439-.956-.332-.915-1.529-1.315-2.411-1.759-3.878-3.69-8.184-5.7-12.71-.674-1.517-2.356-3.8-2.193-5.04.188-1.422,2.191-1.946,3.07-2.629,1.553,1.277,2.058,3.409,2.85,5.259,1.577,3.682,3.208,7.5,4.823,11.4a18.2,18.2,0,0,1,1.754,5.7M164.8,135.841c.956,1.244,2.312,2.23,2.192,3.725-.1,1.309-3.336,3.442-4.6,4.383-1.147.85-3.164,2.159-5.263,3.725-1.509,1.126-3.626,3.41-5.261,3.287-1.053-.08-2.6-1.861-3.508-2.63-.743-.631-2.814-1.775-2.85-3.067-.042-1.472,2.369-2.493,3.727-3.506,2.959-2.209,5.176-4.132,8.112-6.355,1.254-.95,3.279-2.707,4.384-2.63,1.223.085,2.237,1.986,3.069,3.067m-11.181-20.16c1.425,3.49,3.022,6.931,4.6,10.738.606,1.456,2.246,4.364,1.973,5.7-.2.965-1.754,1.829-3.069,2.848-1.1.852-2.476,2.259-3.728,1.972-1.022-.234-1.794-2.743-2.411-4.163-2.071-4.771-3.888-9.369-5.918-13.806a11.536,11.536,0,0,0,1.315-4.6,31.43,31.43,0,0,1,4.6-3.945h.219c1.42,1.17,1.648,3.388,2.412,5.259M146.386,99.9c1.989.391,3.223,2.224,4.384,3.726,1.122,5.189-1.368,9.564-6.577,9.2-8.613-.6-7.623-14.861,2.193-12.929M130.6,126.419c2.042-4.874,5.119-12.069,7.015-15.778,1.785-.253,2.447,1.731,3.946,2.41,1.347.612,2.646.34,4.385.876-.022,2.346-1.347,4.341-2.193,6.356-1.7,4.046-3.286,7.992-5.042,12.052-.8,1.853-1.351,4.014-2.85,5.479a13.749,13.749,0,0,1-3.946-2.63c-.955-.817-3.078-2.362-3.288-3.287-.3-1.3,1.219-3.678,1.973-5.478m-20.827-1.753a26.268,26.268,0,0,1,3.069-3.725c1.57-.477,3.479,1.83,3.508,2.63.041,1.153-2.385,3.594-3.727,5.04-.688.741-1.071,1.488-1.754,1.534-1.539.1-1.953-1.311-3.069-1.972-.336-1.631,1.207-2.593,1.973-3.506M98.154,135.184c1.35-1.072,2.855-.529,4.165-.657,8.511-.837,12.752-7.881,16.881-13.586,1.727.491,2.918,1.839,4.166,2.849a22.242,22.242,0,0,1,3.727,3.287c-.457,1.6-1.909,2.668-3.069,3.725-3.439,3.135-8.18,7.491-8.988,13.367-.261,1.892.1,3.732-.439,5.917-6.519.509-10.973-2.782-13.812-7.013-1.412-2.105-3.273-4.937-2.631-7.889m27.184,15.778c-2.356,4.727-5,11.257-7.673,14.682a7.914,7.914,0,0,1-2.85-1.1c-.2-1.951,1.022-3.77,1.754-5.478,2.255-5.265,4.607-10.866,7.015-16.215,1.264-.284,4.014,2.015,4.166,2.848.25,1.376-1.556,3.543-2.412,5.26m5.481,4.6c1.508-1.184,3.246-3.582,5.261-3.287.753.11,2.576,1.866,3.508,2.63,1.058.867,2.87,2.014,2.85,3.286-.023,1.481-4.5,4.136-5.7,5.041-1.355,1.025-4.416,3.992-6.358,4.383-1.894.381-4.093-.309-5.919-.658a21.221,21.221,0,0,1-5.262-1.315c.016-1.624,2.086-2.569,3.508-3.726,2.541-2.065,5.356-4.191,8.112-6.354M101,173.095c2.931-7.745-4.307-18.313-.439-26.3,1.743.375,2.923,1.814,4.385,2.629,1.517.847,3.257,1.265,4.6,2.411.378,2.8-.039,6.669-.219,9.641a5.912,5.912,0,0,1-2.85.658c14.174,7.733,40.634,8.936,60.289,5.259-3.393-.8-6.047,1.122-8.988.657-1.462-.23-3.654-2.4-5.043-3.506-1.769-1.409-3.32-2.89-4.6-3.945-3.566-2.929-6.823-4.962-9.428-7.669-4.212-2.852-9.387-7.447-14.25-11.4-1.343-1.09-4.427-2.686-4.6-3.944-.172-1.224,3.667-5.541,5.042-6.793.069.015.152-.019.219,0,1.8.508,3.756,2.591,5.7,4.163,4.688,3.792,8.741,7.141,13.372,10.957,7.738,6.377,16.281,12.963,24.116,19.5.205,1.228-.732,1.314-1.316,1.753,5.845-.659,11.8-3.107,17.1-5.04-.913-.476-2.752-.025-3.508-.658,1.04-2.246-.055-6.628.657-9.2.51-.8,1.571-.9,2.412-1.315,2.025-1,4.405-3.068,6.577-3.506,1.417,1.008,1.127,3.831.878,6.136-.652,6.045-2.342,12.726-2.193,19.283-13.358,5.516-29.8,11.389-49.327,10.081-14.579-.977-27.65-5.583-38.585-9.861" transform="translate(-65.489 -65.936)" fill="#374377"/>
        <path id="Path_1132" data-name="Path 1132" d="M368.233,207.045c.982,1.173,2.446,2.233,2.85,3.725.34,1.256-.238,2.656.438,4.164.813.369,1.33,1.166,2.412,1.315,1.782.246,4.047-.874,6.138-.657,2.128.221,2.875,1.106,4.6,1.753.352-1.375-.572-1.473-1.535-1.534-3.315-2.529-7.96.731-10.742-.438a9.654,9.654,0,0,1-.876-5.04c-1.545-1.6-2.991-3.9-4.385-5.478-.477-.539-.979-1.564-1.754-1.315,1.157.879,1.8,2.251,2.85,3.506" transform="translate(-258.836 -144.153)" fill="#374377"/>
        <path id="Path_1133" data-name="Path 1133" d="M396.961,97.8l.012-.3-.215.127Z" transform="translate(-281.061 -69.064)" fill="#f6f5f7"/>
      </g>
    </g>
  </g>
</svg>
