<svg xmlns="http://www.w3.org/2000/svg" xmlns:xlink="http://www.w3.org/1999/xlink" width="18" height="14" viewBox="0 0 18 14">
  <defs>
    <clipPath id="clip-path">
      <path id="Shape" d="M17,14H1a1,1,0,0,1-1-1V1A1,1,0,0,1,1,0H17a1,1,0,0,1,1,1V13A1,1,0,0,1,17,14ZM2,3v9H16V3L10.2,7.35a2,2,0,0,1-2.4,0ZM4,2,9,5.75,14,2Z" transform="translate(2 4)" fill="#fff"/>
    </clipPath>
  </defs>
  <g id="Icon" transform="translate(-2 -4)">
    <path id="Shape-2" data-name="Shape" d="M17,14H1a1,1,0,0,1-1-1V1A1,1,0,0,1,1,0H17a1,1,0,0,1,1,1V13A1,1,0,0,1,17,14ZM2,3v9H16V3L10.2,7.35a2,2,0,0,1-2.4,0ZM4,2,9,5.75,14,2Z" transform="translate(2 4)" fill="#fff"/>
    <g id="Mask_Group_21" data-name="Mask Group 21" clip-path="url(#clip-path)">
      <g id="Color">
        <rect id="Rectangle" width="22" height="22" fill="#fff"/>
      </g>
    </g>
  </g>
</svg>
